<?xml version="1.0" encoding="UTF-8" standalone="no"?>
<svg xmlns:dc="http://purl.org/dc/elements/1.1/" xmlns:cc="http://creativecommons.org/ns#" xmlns:rdf="http://www.w3.org/1999/02/22-rdf-syntax-ns#" xmlns:svg="http://www.w3.org/2000/svg" xmlns="http://www.w3.org/2000/svg" xmlns:sodipodi="http://sodipodi.sourceforge.net/DTD/sodipodi-0.dtd" xmlns:inkscape="http://www.inkscape.org/namespaces/inkscape" id="svg23832" viewBox="0 0 1019.8009 999.97954" version="1.1" inkscape:version="0.48.4 r9939" sodipodi:docname="ISS Expedition 16 Patch.svg">
  <sodipodi:namedview pagecolor="#ffffff" bordercolor="#666666" borderopacity="1" objecttolerance="10" gridtolerance="10" guidetolerance="10" inkscape:pageopacity="0" inkscape:pageshadow="2" inkscape:window-width="1600" inkscape:window-height="853" id="namedview81" showgrid="false" fit-margin-top="0" fit-margin-left="0" fit-margin-right="0" fit-margin-bottom="0" inkscape:zoom="0.28" inkscape:cx="-54.690178" inkscape:cy="634.00286" inkscape:window-x="0" inkscape:window-y="0" inkscape:window-maximized="1" inkscape:current-layer="svg23832"/>
  <title id="title43435">Expedition 16 insignia</title>
  <defs id="defs23834">
    <clipPath id="clipPath14614">
      <path id="path14616" d="m 350.21,876.21 h 92.415 v 92.415 H 350.21 V 876.21 z" inkscape:connector-curvature="0"/>
    </clipPath>
  </defs>
  <g id="g3199" style="fill:#000000;fill-opacity:1">
    <g transform="matrix(32.388,0,0,-32.388,643.45234,125.17962)" id="g14642" style="fill:#000000;fill-opacity:1">
      <path style="fill:#000000;fill-rule:evenodd;fill-opacity:1" inkscape:connector-curvature="0" d="m 0,0 -5.873,-4.91 -0.731,0.74 5.893,4.813 -0.314,0.321 -5.94,-4.769 -0.76,0.769 L -1.668,1.69 0,0 z" id="path14644"/>
    </g>
    <g transform="matrix(32.388,0,0,-32.388,158.60404,526.46694)" id="g14646" style="fill:#000000;fill-opacity:1">
      <path style="fill:#000000;fill-rule:evenodd;fill-opacity:1" inkscape:connector-curvature="0" d="M 0,0 7.682,6.41 6.934,7.166 -0.789,0.919 -1.194,1.324 6.564,7.539 5.786,8.325 -2.138,2.155 0,0 z" id="path14648"/>
    </g>
    <g transform="matrix(32.388,0,0,-32.388,574.14204,54.89766)" id="g14650" style="fill:#000000;fill-opacity:1">
      <path style="fill:#000000;fill-rule:evenodd;fill-opacity:1" inkscape:connector-curvature="0" d="m 0,0 -6.117,-4.68 -0.734,0.743 6.137,4.584 -0.316,0.321 -6.183,-4.539 -0.763,0.772 6.302,4.494 L 0,0 z" id="path14652"/>
    </g>
    <g transform="matrix(32.388,0,0,-32.388,69.537036,437.39994)" id="g14654" style="fill:#000000;fill-opacity:1">
      <path style="fill:#000000;fill-rule:evenodd;fill-opacity:1" inkscape:connector-curvature="0" d="M 0,0 8.005,6.111 7.253,6.87 -0.79,0.919 -1.196,1.326 6.882,7.244 6.102,8.033 -2.147,2.162 0,0 z" id="path14656"/>
    </g>
    <g transform="matrix(32.388,0,0,-32.388,1019.8009,500.88042)" id="g14658" style="fill:#000000;fill-opacity:1">
      <path style="fill:#000000;fill-rule:evenodd;fill-opacity:1" inkscape:connector-curvature="0" d="m 0,0 -4.575,-6.148 -0.717,0.726 4.604,6.044 -0.309,0.314 -4.65,-6.003 -0.745,0.754 4.755,5.97 L 0,0 z" id="path14660"/>
    </g>
    <g transform="matrix(32.388,0,0,-32.388,645.07174,999.97954)" id="g14662" style="fill:#000000;fill-opacity:1">
      <path style="fill:#000000;fill-rule:evenodd;fill-opacity:1" inkscape:connector-curvature="0" d="M 0,0 5.929,7.952 5.091,8.797 5.064,8.762 5.17,8.659 -0.785,0.914 -1.181,1.309 4.805,9.021 4.846,8.984 4.873,9.018 4.072,9.827 -2.09,2.107 0,0 z" id="path14664"/>
    </g>
    <g transform="matrix(32.388,0,0,-32.388,951.78614,431.5701)" id="g14666" style="fill:#000000;fill-opacity:1">
      <path style="fill:#000000;fill-rule:evenodd;fill-opacity:1" inkscape:connector-curvature="0" d="m 0,0 -4.811,-5.924 -0.805,0.815 0.029,0.034 0.085,-0.086 4.81,5.787 -0.31,0.315 -4.853,-5.743 0.042,-0.044 -0.029,-0.035 -0.791,0.8 4.992,5.744 L 0,0 z" id="path14668"/>
    </g>
    <g transform="matrix(32.388,0,0,-32.388,557.62414,912.53194)" id="g14670" style="fill:#000000;fill-opacity:1">
      <path style="fill:#000000;fill-rule:evenodd;fill-opacity:1" inkscape:connector-curvature="0" d="M 0,0 6.238,7.665 5.431,8.481 5.38,8.42 5.461,8.359 -0.785,0.914 -1.182,1.311 5.089,8.715 5.187,8.626 5.233,8.68 4.375,9.547 -2.097,2.114 0,0 z" id="path14672"/>
    </g>
    <g transform="matrix(32.388,0,0,-32.388,849.44004,675.12786)" id="g14674" style="fill:#000000;fill-opacity:1">
      <path style="fill:#000000;fill-rule:evenodd;fill-opacity:1" inkscape:connector-curvature="0" d="m 0,0 -0.03,-0.039 -0.087,0.085 -0.446,-0.582 -0.146,0.147 -0.168,-0.079 -0.043,-0.056 0.071,-0.071 -0.141,-0.183 0.066,-0.066 -0.323,-0.419 -0.219,0.221 0.319,0.411 v 0.125 L -3.277,1.646 -3.28,1.511 -3.624,1.1 -3.823,1.3 -3.465,1.723 -3.496,1.842 -4.113,2.466 -3.756,2.878 -3.068,2.182 -2.651,2.677 -2.424,2.448 -2.851,1.939 -2.716,1.802 -2.428,2.04 -2.581,1.616 -2.477,1.659 -2.013,1.621 -2.179,1.259 -0.704,-0.232 -0.327,0.255 -0.385,0.316 -0.353,0.357 0,0 z" id="path14676"/>
    </g>
    <g transform="matrix(32.388,0,0,-32.388,291.07094,203.55858)" id="g14678" style="fill:#000000;fill-opacity:1">
      <path style="fill:#000000;fill-rule:evenodd;fill-opacity:1" inkscape:connector-curvature="0" d="M 0,0 0.044,0.032 0.1,-0.023 0.716,0.428 0.866,0.277 1.071,0.322 1.129,0.365 1.057,0.438 1.243,0.575 1.177,0.642 1.604,0.956 1.533,1.027 1.571,1.055 1.933,0.69 1.895,0.661 1.823,0.734 1.405,0.424 1.389,0.315 3.547,-1.866 3.562,-1.743 3.94,-1.439 3.897,-1.396 3.928,-1.37 4.291,-1.734 4.259,-1.76 4.137,-1.638 3.746,-1.955 3.77,-2.066 4.546,-2.851 4.123,-3.204 3.264,-2.336 2.779,-2.729 2.853,-2.803 2.814,-2.834 2.445,-2.461 2.483,-2.43 2.544,-2.491 3.045,-2.089 2.906,-1.949 2.552,-2.14 2.773,-1.764 2.649,-1.792 2.123,-1.706 2.355,-1.393 0.838,0.14 0.319,-0.244 0.415,-0.342 0.37,-0.375 0,0 z" id="path14680"/>
    </g>
    <g transform="matrix(32.388,0,0,-32.388,657.70314,548.49078)" id="g14682" style="fill:#000000;fill-opacity:1">
      <path style="fill:#000000;fill-rule:evenodd;fill-opacity:1" inkscape:connector-curvature="0" d="M 0,0 0.154,0.169 0.378,-0.057 0.582,0.167 0.554,0.194 0.671,0.322 0.693,0.3 0.868,0.494 0.985,0.495 1.007,0.425 1.069,0.415 1.049,0.303 1.226,0.339 1.234,0.266 1.318,0.269 1.346,0.165 1.261,0.07 1.288,0.034 1.253,-0.005 1.458,-0.213 1.456,-0.301 l 0.112,0.127 0.097,-0.005 0.043,-0.11 0.048,0.013 0.005,-0.194 0.025,-0.025 0.09,0.102 0.067,0.003 0.016,-0.087 H 2.064 L 2.087,-0.584 2.054,-0.709 2.267,-0.925 1.626,-1.666 1.424,-1.471 1.188,-1.482 1.191,-1.394 1.095,-1.352 1.068,-1.274 1.11,-1.226 0.946,-1.201 0.925,-1.094 0.866,-1.08 0.847,-0.985 0.888,-0.938 0.89,-0.868 0.724,-0.7 0.629,-0.646 0.557,-0.727 0.518,-0.687 0.466,-0.716 0.451,-0.615 0.381,-0.622 0.386,-0.545 0.355,-0.518 0.357,-0.448 0.239,-0.491 0.235,-0.379 0.186,-0.392 0.17,-0.281 0.219,-0.227 0,0 z" id="path14684"/>
    </g>
    <g transform="matrix(32.388,0,0,-32.388,658.99864,531.32514)" id="g14686" style="fill:#000000;fill-opacity:1">
      <path style="fill:#000000;fill-rule:evenodd;fill-opacity:1" inkscape:connector-curvature="0" d="M 0,0 -0.641,0.647 -0.674,0.614 -0.732,0.672 -0.8,0.538 -0.652,0.387 -0.58,0.52 -0.502,0.442 -0.674,0.161 -4.796,-4.222 -4.954,-4.889 -0.458,-0.071 -0.226,0.063 -0.25,-0.04 -0.084,-0.208 -0.031,-0.036 0,0 z" id="path14688"/>
    </g>
    <g transform="matrix(32.388,0,0,-32.388,509.04214,379.42542)" id="g14690" style="fill:#000000;fill-opacity:1">
      <path style="fill:#000000;fill-rule:evenodd;fill-opacity:1" inkscape:connector-curvature="0" d="M 0,0 -0.645,0.651 -0.68,0.621 -0.74,0.68 -0.816,0.553 l 0.148,-0.152 0.081,0.125 0.078,-0.078 -0.19,-0.263 -4.495,-4.036 -0.193,-0.636 4.905,4.439 0.248,0.118 -0.029,-0.098 0.167,-0.169 0.062,0.164 L 0,0 z" id="path14692"/>
    </g>
    <g transform="matrix(32.388,0,0,-32.388,467.90944,336.99714)" id="g14694" style="fill:#000000;fill-opacity:1">
      <path style="fill:#000000;fill-rule:evenodd;fill-opacity:1" inkscape:connector-curvature="0" d="M 0,0 0.373,0.324 6.69,-6.063 6.359,-6.427 0,0 z" id="path14696"/>
    </g>
    <g transform="matrix(32.388,0,0,-32.388,610.74054,481.7715)" id="g14698" style="fill:#000000;fill-opacity:1">
      <path style="fill:#000000;fill-rule:evenodd;fill-opacity:1" inkscape:connector-curvature="0" d="m 0,0 -0.186,-0.19 0.025,-0.026 -0.136,-0.139 -0.042,0.043 0.044,0.045 -1.5,1.515 -0.326,0.33 -0.067,0.64 L 0,0 z" id="path14700"/>
    </g>
    <g transform="matrix(32.388,0,0,-32.388,551.79434,444.5253)" id="g14702" style="fill:#000000;fill-opacity:1">
      <path style="fill:#000000;fill-rule:evenodd;fill-opacity:1" inkscape:connector-curvature="0" d="M 0,0 0.124,-0.158 0.082,-0.2 l -0.217,0.103 -0.254,-0.246 -0.043,0.043 -0.129,-0.126 0.04,-0.04 -0.031,-0.029 -0.175,0.178 c 0,0 0.151,0.208 0.009,0.351 -0.141,0.143 -0.287,0.054 -0.358,-0.013 -0.071,-0.067 -0.163,-0.238 -0.029,-0.374 0.134,-0.135 0.289,-0.02 0.289,-0.02 l 0.183,-0.185 -0.354,-0.341 0.119,-0.254 -0.193,-0.262 c 0,0 -0.341,0.005 -0.555,-0.203 -0.216,-0.208 -0.171,-0.412 -0.171,-0.412 l -0.08,-0.079 -0.124,0.013 -0.524,-0.509 0.021,-0.02 -0.075,-0.074 -0.029,0.03 -0.206,-0.199 -0.053,0.054 -0.381,-0.37 0.06,-0.06 -0.15,-0.146 -0.209,-0.066 -0.082,-0.079 -0.007,-0.191 c 0,0 -0.122,0.071 -0.343,-0.142 C -4.19,-4.083 -4.117,-4 -4.117,-4 l -0.439,0.441 -0.16,-0.153 0.452,-0.454 -0.051,-0.098 -0.041,-0.274 -0.141,-0.047 -0.411,-0.401 -0.098,0.099 0.05,0.049 -2.232,2.239 -0.225,-0.057 2.31,-2.318 0.046,0.038 0.086,-0.087 -0.3,-0.291 -0.368,-0.143 -1.144,-1.109 c 0,0 0.027,-0.198 0.088,-0.258 l 0.146,-0.146 -0.105,-0.204 0.175,-0.281 0.124,-0.156 -0.011,-0.087 0.162,-0.162 0.171,0.17 -0.139,0.14 h -0.122 l -0.116,0.157 -0.136,0.25 0.098,0.079 c 0,0 0.22,-0.212 0.291,-0.225 0.068,-0.013 0.133,-0.013 0.133,-0.013 l 1.114,1.106 0.11,0.394 0.298,0.294 0.133,-0.133 -0.039,-0.038 2.305,-2.312 0.061,0.23 -2.214,2.221 -0.061,-0.061 -0.102,0.101 0.378,0.374 -0.008,-0.075 0.093,-0.018 0.125,0.289 0.136,0.031 -0.111,-1.075 0.075,-0.058 0.136,1.179 0.466,-0.453 0.119,0.119 -0.448,0.45 c 0,0 0.215,0.147 0.233,0.255 0.017,0.108 0.065,0.251 0.065,0.251 l 1.91,0.161 0.053,0.104 -1.642,-0.164 0.19,0.375 0.066,-0.066 0.352,0.349 -0.062,0.063 0.199,0.197 0.061,0.095 0.033,-0.033 0.532,0.528 0.014,0.16 0.056,0.054 c 0,0 0.254,-0.015 0.429,0.158 0.235,0.234 0.186,0.541 0.186,0.541 l 0.061,0.06 0.276,0.152 0.149,-0.15 0.264,0.246 0.06,0.013 -0.054,-0.105 -0.174,-0.172 0.293,-0.288 0.315,0.213 0.12,0.018 0.424,-0.421 c 0,0 0.074,0.064 0.167,0.16 0.094,0.095 0.141,0.172 0.141,0.172 l -0.047,0.067 0.043,0.113 -0.122,0.122 -0.051,-0.052 -0.031,0.031 0.055,0.056 -0.234,0.236 0.136,0.2 L 1.07,-1.101 1.096,-1.074 0.849,-0.825 0.89,-0.783 0.848,-0.74 0.723,-0.763 0.427,-0.945 0.529,-0.82 0.481,-0.537 0.741,-0.633 0.022,0.094 0,0 z" id="path14704"/>
    </g>
    <g transform="matrix(32.388,0,0,-32.388,579.32414,551.72958)" id="g14706" style="fill:#000000;fill-opacity:1">
      <path style="fill:#000000;fill-rule:evenodd;fill-opacity:1" inkscape:connector-curvature="0" d="M 0,0 -1.302,1.313 -1.44,1.175 -2.337,2.079 -2.193,2.219 -3.501,3.538 -4.174,2.918 -2.853,1.587 -2.686,1.748 -1.774,0.83 -1.939,0.665 -0.628,-0.655 0,0 z" id="path14708"/>
    </g>
    <g transform="matrix(32.388,0,0,-32.388,574.14204,421.52982)" id="g14710" style="fill:#000000;fill-opacity:1">
      <path style="fill:#000000;fill-rule:evenodd;fill-opacity:1" inkscape:connector-curvature="0" d="m 0,0 0.007,0.008 0.709,0.685 0.115,-0.104 0.117,-0.007 -0.03,0.165 -0.063,0.07 0.313,0.304 -1.389,1.408 -0.195,0.026 0.296,0.287 0.007,0.121 -0.13,0.112 -0.086,-0.063 0.03,-0.019 -0.318,-0.289 -0.125,0.127 0.382,0.346 -0.057,0.057 -0.067,-0.06 0.016,-0.022 -0.287,-0.259 -0.122,0.13 0.266,0.239 0.04,10e-4 0.073,0.065 -0.073,0.074 -0.072,-0.065 0.016,-0.017 -0.295,-0.264 -0.133,0.135 0.288,0.258 0.014,-0.014 0.066,0.06 -0.059,0.06 -0.061,-0.053 0.009,-0.009 -0.325,-0.289 -0.123,0.124 0.349,0.398 0.031,0.028 -0.075,0.077 -0.45,-0.398 -0.24,0.048 -0.107,0.31 0.131,0.407 0.068,0.058 0.429,0.063 0.281,-0.106 0.027,-0.028 0.038,-0.186 -0.104,-0.093 0.121,-0.032 0.175,0.156 -0.391,0.391 -0.102,-0.088 -0.298,0.326 0.064,0.055 0.258,-0.249 0.058,0.041 0.12,-0.12 0.147,0.129 0.322,-0.328 0.028,0.025 0.04,-0.04 L 0.038,4.494 0.163,4.367 -0.209,4.035 -0.153,3.978 -0.093,4.03 -0.107,4.044 0.182,4.302 0.304,4.178 0.023,3.924 0.004,3.943 -0.055,3.891 0.007,3.828 0.352,4.129 0.472,4.007 0.201,3.762 0.179,3.783 0.105,3.717 0.165,3.657 0.534,3.991 0.657,3.867 0.276,3.521 0.282,3.33 0.432,3.332 0.48,3.402 0.538,3.455 0.604,3.365 0.531,3.35 0.53,3.251 c 0,0 0.282,-0.026 0.358,-0.252 0.077,-0.225 0.06,-0.225 0.06,-0.225 L 1.907,1.814 1.843,1.753 2.043,1.622 2.108,1.733 2.188,1.822 2.24,1.782 2.484,1.973 2.637,1.899 2.732,1.733 2.571,1.575 2.523,1.43 2.441,1.35 2.363,1.31 2.427,1.245 2.483,1.129 2.61,1.134 3.406,0.327 3.233,0.013 3.261,-0.008 3.293,0.024 3.432,-0.117 3.397,-0.153 3.614,-0.374 3.423,-0.573 3.345,-0.577 3.15,-0.38 2.926,-0.154 2.678,-0.408 2.459,-0.186 2.381,-0.264 2.319,-0.201 2.396,-0.117 1.891,0.383 1.86,0.5 1.514,0.162 1.274,0.252 1.353,-0.027 1.096,-0.292 1.325,-0.521 1.315,-0.689 1.43,-0.919 1.098,-0.856 0.981,-0.977 0,0 z" id="path14712"/>
    </g>
    <g transform="matrix(32.388,0,0,-32.388,478.92134,327.60462)" id="g14714" style="fill:#000000;fill-opacity:1">
      <path style="fill:#000000;fill-rule:evenodd;fill-opacity:1" inkscape:connector-curvature="0" d="m 0,0 -0.041,0.042 -0.296,0.065 -0.07,0.07 0.086,0.075 -0.041,0.108 -0.151,0.152 0.128,0.11 -0.13,0.132 0.04,0.034 -0.246,0.007 -0.161,0.163 -0.373,0.018 -0.423,-0.353 0.164,-0.376 -0.27,-0.228 0.115,-0.116 0.049,0.042 0.051,-0.051 -0.044,-0.037 0.129,-0.005 0.047,0.105 0.068,-0.061 0.119,-0.013 0.19,0.067 0.037,-0.037 -0.034,-0.029 0.078,-0.08 0.091,-0.041 0.448,-0.112 -0.199,-0.203 0.063,-0.064 0.338,0.226 -0.097,0.098 L 0,0 z" id="path14716"/>
    </g>
    <g transform="matrix(32.388,0,0,-32.388,650.90164,424.44474)" id="g14718" style="fill:#000000;fill-opacity:1">
      <path style="fill:#000000;fill-rule:evenodd;fill-opacity:1" inkscape:connector-curvature="0" d="m 0,0 -0.071,-0.004 -0.122,-0.127 0.117,-0.119 -0.082,-0.21 -0.061,0.013 -0.041,-0.121 0.046,-0.053 -0.11,-0.139 -0.041,-0.139 c 0,0 0.066,-0.063 0.059,-0.07 C -0.313,-0.976 -0.408,-1.1 -0.408,-1.1 l -0.038,0.171 0.077,0.237 -0.028,0.058 0.143,0.32 0.066,0.033 0.014,0.049 -0.054,0.054 -0.068,-0.07 -0.073,-0.038 -0.046,-0.078 -0.245,-0.251 -0.155,-0.073 -0.214,10e-4 -0.02,0.085 0.173,0.069 0.317,0.32 0.073,0.017 -0.008,0.057 0.218,0.236 0.107,-0.039 0.055,0.055 L 0,0 z" id="path14720"/>
    </g>
    <g transform="matrix(32.388,0,0,-32.388,646.04344,487.27746)" id="g14722" style="fill:#000000;fill-opacity:1">
      <path style="fill:#000000;fill-rule:evenodd;fill-opacity:1" inkscape:connector-curvature="0" d="m 0,0 -0.148,0.288 0.074,-0.317 0.07,0.038 m -0.384,0.85 -0.105,0.376 -0.083,-0.048 0.188,-0.328 z m 0.497,-0.884 -0.187,-0.115 -0.087,0.088 -0.105,0.497 -0.424,0.788 0.192,0.08 0.079,0.085 0.25,-0.883 0.282,-0.54 z" id="path14724"/>
    </g>
  </g>
  <metadata id="metadata79">
    <rdf:RDF>
      <cc:Work>
        <dc:format>image/svg+xml</dc:format>
        <dc:type rdf:resource="http://purl.org/dc/dcmitype/StillImage"/>
        <cc:license rdf:resource="http://creativecommons.org/licenses/publicdomain/"/>
        <dc:publisher>
          <cc:Agent rdf:about="http://openclipart.org/">
            <dc:title>Openclipart</dc:title>
          </cc:Agent>
        </dc:publisher>
        <dc:title>Expedition 16 insignia</dc:title>
        <dc:date>2013-08-29T15:20:41</dc:date>
        <dc:description>Public Domain Source http://commons.wikimedia.org/wiki/File:ISS_Expedition_16_patch.svg </dc:description>
        <dc:source>https://openclipart.org/detail/182627/iss-expedition-16-patch-by-NASA-182627</dc:source>
        <dc:creator>
          <cc:Agent>
            <dc:title>NASA</dc:title>
          </cc:Agent>
        </dc:creator>
        <dc:subject>
          <rdf:Bag>
            <rdf:li>ISS_Expedition_16</rdf:li>
            <rdf:li>NASA</rdf:li>
            <rdf:li>patch</rdf:li>
            <rdf:li>upload2openclipart</rdf:li>
          </rdf:Bag>
        </dc:subject>
      </cc:Work>
      <cc:License rdf:about="http://creativecommons.org/licenses/publicdomain/">
        <cc:permits rdf:resource="http://creativecommons.org/ns#Reproduction"/>
        <cc:permits rdf:resource="http://creativecommons.org/ns#Distribution"/>
        <cc:permits rdf:resource="http://creativecommons.org/ns#DerivativeWorks"/>
      </cc:License>
    </rdf:RDF>
  </metadata>
</svg>
